<?xml version="1.0" encoding="UTF-8"?>
<svg xmlns="http://www.w3.org/2000/svg" xmlns:xlink="http://www.w3.org/1999/xlink" width="32px" height="32px" viewBox="0 0 32 32" version="1.1">
<g id="surface1">
<path style=" stroke:none;fill-rule:nonzero;fill:rgb(100%,100%,100%);fill-opacity:1;" d="M 12.859375 19.5 C 12.859375 19.898438 12.539062 20.21875 12.140625 20.21875 C 11.742188 20.21875 11.421875 19.898438 11.421875 19.5 C 11.421875 19.101562 11.742188 18.78125 12.140625 18.78125 C 12.539062 18.78125 12.859375 19.101562 12.859375 19.5 Z M 12.859375 19.5 "/>
<path style=" stroke:none;fill-rule:nonzero;fill:rgb(100%,100%,100%);fill-opacity:1;" d="M 19.738281 21.679688 C 19.738281 22.078125 19.417969 22.398438 19.019531 22.398438 C 18.621094 22.398438 18.300781 22.078125 18.300781 21.679688 C 18.300781 21.28125 18.621094 20.960938 19.019531 20.960938 C 19.417969 20.960938 19.738281 21.28125 19.738281 21.679688 Z M 19.738281 21.679688 "/>
<path style=" stroke:none;fill-rule:evenodd;fill:rgb(100%,100%,100%);fill-opacity:1;" d="M 31.320312 22.980469 C 31.179688 23.421875 30.878906 23.78125 30.441406 24 C 30.441406 24.011719 30.433594 24.019531 30.421875 24.019531 C 29.839844 24.320312 29.101562 24.339844 28.441406 24.121094 C 28.21875 24.039062 28.019531 23.980469 27.800781 23.898438 C 27.640625 23.859375 27.488281 23.8125 27.339844 23.761719 C 26.859375 24.558594 25.859375 25.441406 24.441406 26.179688 C 21.921875 27.519531 18.078125 28.378906 13.640625 27.421875 C 10.261719 26.679688 8.019531 25.300781 7.019531 23.320312 C 6.21875 21.761719 6.398438 20.160156 6.820312 19.179688 C 7.199219 18.398438 8.28125 17.359375 9.621094 16.300781 C 9.28125 15.921875 8.980469 15.441406 9 14.941406 C 9 14.539062 9.199219 14.179688 9.539062 13.960938 C 10.460938 13.339844 11.660156 13.839844 12.398438 14.261719 C 12.828125 13.964844 13.253906 13.679688 13.679688 13.398438 C 13.378906 13.300781 12.980469 13.199219 12.480469 13.140625 C 10.679688 12.960938 6 12.101562 4.339844 11.398438 C 0.320312 9.699219 0.378906 7.78125 0.78125 6.78125 C 1.480469 5.019531 5.421875 3.960938 7.21875 4 C 8.101562 4.019531 8.621094 4.28125 8.800781 4.800781 C 9.121094 5.660156 8.121094 6.140625 6.820312 6.78125 C 6.480469 6.941406 6.101562 7.121094 5.738281 7.320312 C 7.558594 7.480469 10.261719 7.378906 12.300781 7.300781 C 14.039062 7.21875 15.679688 7.160156 17.078125 7.179688 C 22 7.28125 25.859375 9.320312 28.539062 13.261719 C 30.300781 15.839844 29.78125 18.421875 28.980469 20.398438 C 29.320312 20.441406 29.679688 20.539062 30.019531 20.738281 C 30.640625 21.140625 31.699219 21.800781 31.320312 22.980469 Z M 30.019531 22.578125 C 30.058594 22.421875 29.820312 22.238281 29.359375 21.960938 C 29 21.71875 28.621094 21.699219 28.019531 21.820312 C 27.980469 21.820312 27.960938 21.820312 27.941406 21.820312 C 27.925781 21.820312 27.90625 21.820312 27.878906 21.820312 C 27 21.878906 26.28125 21.058594 26.140625 20.878906 C 25.921875 20.601562 25.960938 20.160156 26.261719 19.921875 C 26.539062 19.699219 26.980469 19.738281 27.21875 20.039062 C 27.300781 20.140625 27.421875 20.238281 27.519531 20.320312 C 28.378906 18.421875 28.921875 16.238281 27.421875 14.039062 C 24.960938 10.441406 21.558594 8.640625 17.058594 8.558594 C 15.699219 8.539062 14.078125 8.601562 12.339844 8.660156 C 8.339844 8.820312 5.5 8.878906 3.898438 8.398438 C 3.886719 8.386719 3.875 8.378906 3.859375 8.378906 C 3.398438 8.21875 3.039062 8.039062 2.78125 7.78125 C 2.519531 7.5 2.539062 7.078125 2.820312 6.800781 C 3.078125 6.539062 3.519531 6.558594 3.78125 6.839844 C 3.800781 6.859375 3.859375 6.898438 3.898438 6.921875 C 4.5 6.398438 5.398438 5.941406 6.21875 5.539062 C 6.3125 5.5 6.40625 5.460938 6.5 5.421875 C 5.800781 5.480469 4.859375 5.679688 3.941406 6.039062 C 2.71875 6.5 2.160156 6.980469 2.058594 7.28125 C 1.539062 8.578125 3.859375 9.71875 4.878906 10.140625 C 6.300781 10.738281 10.699219 11.601562 12.601562 11.78125 C 13.820312 11.898438 14.558594 12.261719 15 12.539062 C 16.28125 11.738281 17.28125 11.140625 17.578125 10.960938 C 17.898438 10.761719 18.320312 10.878906 18.519531 11.199219 C 18.71875 11.539062 18.601562 11.960938 18.28125 12.140625 C 14.601562 14.300781 8.859375 18.101562 8.058594 19.761719 C 7.800781 20.398438 7.660156 21.558594 8.238281 22.699219 C 9.039062 24.261719 11.019531 25.441406 13.941406 26.078125 C 20.441406 27.5 25.039062 24.621094 26.078125 23.160156 C 25.980469 23.078125 25.878906 23 25.800781 22.898438 C 25.578125 22.601562 25.640625 22.160156 25.941406 21.941406 C 26.238281 21.71875 26.679688 21.78125 26.898438 22.078125 C 27.039062 22.238281 27.761719 22.460938 28.199219 22.601562 C 28.441406 22.660156 28.660156 22.738281 28.878906 22.820312 C 29.199219 22.921875 29.558594 22.921875 29.800781 22.800781 C 29.921875 22.738281 29.980469 22.660156 30.019531 22.578125 Z M 10.398438 15.058594 C 10.441406 15.160156 10.558594 15.300781 10.699219 15.460938 C 10.832031 15.367188 10.972656 15.265625 11.121094 15.160156 C 10.820312 15.058594 10.558594 15 10.398438 15.058594 Z M 10.398438 15.058594 "/>
</g>
</svg>
