<?xml version="1.0" encoding="UTF-8"?>
<svg xmlns="http://www.w3.org/2000/svg" xmlns:xlink="http://www.w3.org/1999/xlink" width="32px" height="32px" viewBox="0 0 32 32" version="1.1">
<g id="surface1">
<path style=" stroke:none;fill-rule:nonzero;fill:rgb(100%,100%,100%);fill-opacity:1;" d="M 24.296875 4.113281 C 24.949219 4.765625 24.949219 5.820312 24.296875 6.472656 L 22.773438 7.996094 L 24.332031 7.996094 C 27.09375 7.996094 29.335938 10.234375 29.332031 12.996094 L 29.332031 22.996094 C 29.332031 25.757812 27.09375 27.996094 24.332031 27.996094 L 7.667969 27.996094 C 4.90625 27.996094 2.667969 25.757812 2.667969 22.996094 L 2.667969 12.996094 C 2.667969 10.234375 4.90625 7.996094 7.667969 7.996094 L 9.222656 7.996094 L 7.699219 6.472656 C 7.265625 6.054688 7.09375 5.433594 7.246094 4.851562 C 7.398438 4.269531 7.851562 3.816406 8.433594 3.660156 C 9.019531 3.507812 9.636719 3.683594 10.054688 4.117188 L 13.59375 7.652344 C 13.699219 7.757812 13.785156 7.871094 13.855469 7.996094 L 18.140625 7.996094 C 18.210938 7.871094 18.300781 7.753906 18.40625 7.652344 L 21.941406 4.113281 C 22.589844 3.464844 23.644531 3.464844 24.296875 4.113281 Z M 24.332031 11.339844 L 7.667969 11.339844 C 6.792969 11.339844 6.070312 12.015625 6.003906 12.882812 L 6 13.007812 L 6 23.007812 C 6 23.886719 6.679688 24.609375 7.542969 24.671875 L 7.667969 24.675781 L 24.332031 24.675781 C 25.207031 24.675781 25.929688 24.003906 25.996094 23.132812 L 26 23.007812 L 26 13.007812 C 26 12.089844 25.253906 11.34375 24.332031 11.34375 Z M 11 14.675781 C 11.921875 14.675781 12.667969 15.421875 12.667969 16.339844 L 12.667969 18.007812 C 12.667969 18.929688 11.921875 19.675781 11 19.675781 C 10.078125 19.675781 9.332031 18.929688 9.332031 18.007812 L 9.332031 16.339844 C 9.332031 15.421875 10.078125 14.675781 11 14.675781 Z M 21 14.675781 C 21.921875 14.675781 22.667969 15.421875 22.667969 16.339844 L 22.667969 18.007812 C 22.667969 18.929688 21.921875 19.675781 21 19.675781 C 20.078125 19.675781 19.332031 18.929688 19.332031 18.007812 L 19.332031 16.339844 C 19.332031 15.421875 20.078125 14.675781 21 14.675781 Z M 21 14.675781 "/>
</g>
</svg>
