<?xml version="1.0" standalone="no"?><!DOCTYPE svg PUBLIC "-//W3C//DTD SVG 1.1//EN" "http://www.w3.org/Graphics/SVG/1.1/DTD/svg11.dtd"><svg t="1714103877727" class="icon" viewBox="0 0 1170 1024" version="1.1" xmlns="http://www.w3.org/2000/svg" p-id="4971" width="36.5625" height="32" xmlns:xlink="http://www.w3.org/1999/xlink"><path d="M186.223909 59.026286A36.571429 36.571429 0 0 1 219.942766 36.571429h438.857143a36.571429 36.571429 0 0 1 24.502857 9.435428c81.042286 73.069714 134.070857 181.906286 161.645714 253.293714 43.154286-24.137143 83.602286-36.717714 121.270857-41.325714 80.603429-9.728 142.043429 18.724571 177.737143 35.328l5.558857 2.56a36.571429 36.571429 0 0 1 2.194286 65.316572c-59.245714 32.329143-80.018286 93.769143-111.469714 186.953142l-1.682286 4.754286c-31.085714 92.086857-71.387429 203.337143-182.345143 297.764572-134.802286 114.541714-277.942857 146.285714-407.844571 145.846857-188.781714-0.585143-351.963429-93.769143-434.468572-161.792A36.571429 36.571429 0 0 1 0.514194 806.473143V301.714286a36.571429 36.571429 0 0 1 68.534857-17.773715c53.540571 96.329143 161.133714 213.942857 283.501715 313.051429A36.498286 36.498286 0 0 1 366.22848 594.139429c69.339429 0 151.844571-25.380571 220.891429-70.582858-51.931429-102.107429-123.245714-181.76-194.925715-248.832-34.304-32.182857-68.388571-61.074286-100.571428-88.502857l-5.997715-5.046857c-33.645714-28.525714-65.536-55.881143-91.721142-82.432a36.571429 36.571429 0 0 1-7.68-39.789714z m459.190857 418.230857c7.753143-7.533714 15.140571-15.36 22.089143-23.552a793.819429 793.819429 0 0 1 114.980571-112.64c-22.454857-62.171429-68.900571-163.547429-138.166857-231.350857h-329.874286a6594.852571 6594.852571 0 0 0 24.795429 21.138285c31.963429 27.136 67.291429 57.197714 102.985143 90.550858 71.972571 67.364571 146.651429 149.723429 203.190857 255.853714z m-207.945143 183.588571c75.410286 52.516571 151.186286 94.208 218.697143 117.76 67.291429 23.405714 120.393143 26.770286 156.891428 12.653715 91.574857-79.725714 126.098286-172.617143 156.233143-261.778286l5.266286-15.652572c20.626286-61.659429 42.349714-126.537143 87.698286-174.738285a204.946286 204.946286 0 0 0-87.259429-8.484572c-61.293714 7.387429-145.700571 45.787429-251.757714 170.422857L695.371337 477.403429l27.794286 23.625142c-72.411429 85.211429-182.710857 141.385143-285.696 159.744z m264.338286 205.824a494.006857 494.006857 0 0 1-69.632-19.017143c-77.385143-26.989714-160.841143-73.654857-241.005715-130.048C271.435337 633.490286 154.845623 524.8 73.657051 420.937143v367.908571c77.824 59.904 217.892571 133.997714 375.003429 134.582857 81.92 0.219429 168.082286-13.531429 253.147429-56.758857z" fill="#FFFFFF" p-id="4972"></path></svg>