<?xml version="1.0" standalone="no"?><!DOCTYPE svg PUBLIC "-//W3C//DTD SVG 1.1//EN" "http://www.w3.org/Graphics/SVG/1.1/DTD/svg11.dtd"><svg t="1700321942794" class="icon" viewBox="0 0 1024 1024" version="1.1" xmlns="http://www.w3.org/2000/svg" p-id="8682" width="32" height="32" xmlns:xlink="http://www.w3.org/1999/xlink"><path d="M962.5 346.9c-7.4-72.3-42.5-137.4-98.9-183.3-53.2-43.4-120.3-64.9-188.8-60.6-59.8 3.7-116 26.8-160.8 65.4-44.8-38.7-101-61.7-160.8-65.4-68.5-4.3-135.5 17.2-188.8 60.6-56.4 45.9-91.5 111-98.9 183.3-7.4 71.9 13.6 142.4 58.9 198.6l-26.3 26.3C86 583.9 79.4 600 79.4 617.2c0 17.1 6.7 33.2 18.8 45.3l14.8 14.8c10.8 10.8 24.9 17.3 40 18.5 1.6 13.8 7.7 27.2 18.3 37.8l14.8 14.8c8.3 8.3 18.5 14.1 29.6 16.8 1 14.9 7.2 29.6 18.6 41l14.8 14.8c12.1 12.1 28.2 18.8 45.3 18.8h1.6v1.6c0 17.1 6.7 33.2 18.8 45.3l14.8 14.8c12.1 12.1 28.2 18.8 45.3 18.8 17.1 0 33.2-6.7 45.3-18.8l47.4-47.4 47.3 40.3c15.7 14.3 35.4 22.8 55.3 23.8 1.4 0.1 2.7 0.1 4.1 0.1 20 0 38.6-7.8 51.4-21.7 8.7-9.5 14.4-21.5 16.6-34.4 4.2 0.8 8.5 1.2 13 1.2 2.2 0 4.4-0.1 6.6-0.3 18.5-1.7 35.8-10.4 48.7-24.5 9.5-10.3 15.6-22.4 18.4-35 1.8 0.1 3.7 0.2 5.5 0.2h2.2c19.9-0.6 38.2-8.9 51.6-23.4 12-13.1 18.3-29.5 19-46.1h1.3c19.3 0 36.5-7 48.3-19.9 14.3-15.6 19.3-38.1 13.8-61.8-3.2-13.8-9.8-27.5-19.1-39.9l51.6-66.5c45.6-56.3 66.7-127.1 59.3-199.3z m-829 280.2c-2.7-2.7-4.1-6.2-4.1-10s1.5-7.3 4.1-10l80.3-80.3c2.8-2.8 6.4-4.1 10-4.1 3.6 0 7.2 1.4 10 4.1l14.8 14.8c2.7 2.7 4.1 6.2 4.1 10s-1.5 7.3-4.1 10l-80.3 80.3c-2.7 2.7-6.2 4.1-10 4.1s-7.3-1.5-10-4.1l-14.8-14.8z m73 51.2l80.3-80.3c2.8-2.8 6.4-4.1 10-4.1 3.6 0 7.2 1.4 10 4.1l14.8 14.8c2.7 2.7 4.1 6.2 4.1 10 0 1.3-0.2 2.6-0.5 3.8-3.8 2.4-7.4 5.3-10.7 8.6l-80.3 80.3c-0.5 0.5-1 1.1-1.5 1.6-0.4 0-0.9 0.1-1.4 0.1-3.8 0-7.3-1.5-10-4.1l-14.8-14.8c-5.5-5.5-5.5-14.5 0-20z m77.8 107.3l-14.8-14.8c-3.7-3.7-4.9-9.1-3.6-13.8 3.8-2.5 7.4-5.3 10.7-8.6l80.3-80.3c0.5-0.5 1-1 1.5-1.6 0.5 0 0.9-0.1 1.4-0.1 3.6 0 7.2 1.4 10 4.1l14.8 14.8c2.7 2.7 4.1 6.2 4.1 10s-1.5 7.3-4.1 10l-80.3 80.3c-2.7 2.7-6.2 4.1-10 4.1s-7.4-1.4-10-4.1z m100.4 80.5c-2.7 2.7-6.2 4.1-10 4.1s-7.3-1.5-10-4.1l-14.8-14.8c-2.7-2.7-4.1-6.2-4.1-10s1.5-7.3 4.1-10l80.3-80.3c2.7-2.7 6.2-4.1 10-4.1s7.3 1.5 10 4.1l14.8 14.8c2.7 2.7 4.1 6.2 4.1 10s-1.5 7.3-4.1 10l-80.3 80.3z m435.2-185.6c-4.2 4.5-12.9 3.8-16.4 3.3-6.4-0.9-13.2-3.5-19.7-7.2-0.3-0.3-0.6-0.6-1-0.9l-77.1-70.9-8.4-7.8c-10.2-9.3-26-8.7-35.3 1.5-9.3 10.2-8.7 26 1.5 35.3l8 7.4 64.7 62c0.1 0.1 0.2 0.2 0.4 0.3 4.9 4.5 10 8.5 15.4 12.1 7.3 9.3 7.4 22.4-0.5 30.9-4.1 4.5-9.9 7.1-16.2 7.3-6.1 0.2-12.1-1.9-16.9-5.9-2.5-3.5-5.5-6.9-8.8-9.9l-75.4-69.3c-4.3-3.9-9.5-6.1-14.9-6.5-8.1-1.5-16.8 1.1-22.8 7.7-9.3 10.2-8.7 26 1.5 35.3l81.5 74.9c3.1 7.3 1.1 17.4-5.6 24.7-4.5 4.9-10.4 8-16.5 8.5-3 0.3-8.7 0.1-13.2-4l-0.2-0.2-45-40.4c-2.1-1.9-4.4-3.3-6.8-4.4l-27.5-27.6c-9.8-9.8-25.6-9.8-35.4 0-9.8 9.8-9.8 25.6 0 35.4l49.9 50c0.3 0.3 0.5 0.5 0.8 0.7 7.1 6.6 11.9 15.1 13 23.5 0.5 3.9 0.7 11.2-4.2 16.5-4.9 5.3-12.2 5.8-16.1 5.5-8.4-0.4-17.3-4.5-24.5-11-0.2-0.2-0.5-0.4-0.7-0.6l-44.7-38.1c10.5-11.8 16.3-26.8 16.3-42.7 0-17.1-6.7-33.2-18.8-45.3l-14.8-14.8c-12.1-12.1-28.2-18.8-45.3-18.8h-1.6v-1.6c0-17.1-6.7-33.2-18.8-45.3L405 635.3c-8.5-8.5-18.7-14.1-29.6-16.8-1-15.5-7.5-29.9-18.6-41L342 562.7c-11.1-11.1-25.3-17.3-39.9-18.5-1.7-14.3-8-27.5-18.3-37.8L269 491.6c-25-25-65.7-25-90.7 0L159.9 510c-72.9-94.9-57.4-231.5 36-307.5 82.5-67.2 202-65.2 282.2 1.4C428 255.3 354 331.2 347.1 338c-3.8 3.7-15.3 15-6 54.6 3.1 13.1 11 38 28.5 57 15.7 17 59.7 49.9 128.8-10.5 20.8-18.2 48.8-31.8 65.7-39l114.6 119 1.1 1.1 122 112.2c10.1 9.3 17.4 20.8 19.9 31.6 1 3.4 2.4 12-1.8 16.5z m43.8-165.1l-47.9 61.7-101.5-93.3-125.7-130.5c-6.8-7-17-9.5-26.2-6.3-2.3 0.8-57.7 20.3-96.7 54.4-12.7 11.1-36.3 28.4-51.8 20.2-16.3-8.7-25.3-39.8-26.2-53.5 27.7-28 139.1-142.6 144.3-147.9 79.4-82.3 211.2-90.1 300-17.8C927 279.8 941.3 420 864 515c-0.1 0.1-0.2 0.2-0.3 0.4z" fill="#ffffff" p-id="8683"></path></svg>