<?xml version="1.0" encoding="UTF-8"?>
<svg xmlns="http://www.w3.org/2000/svg" xmlns:xlink="http://www.w3.org/1999/xlink" width="32px" height="32px" viewBox="0 0 32 32" version="1.1">
<g id="surface1">
<path style=" stroke:none;fill-rule:nonzero;fill:rgb(100%,100%,100%);fill-opacity:1;" d="M 25.773438 19.164062 C 25.273438 17.554688 24.699219 16.207031 23.816406 13.996094 C 23.953125 8.195312 21.539062 3.5 15.984375 3.5 C 10.367188 3.5 8.007812 8.289062 8.15625 13.996094 C 7.269531 16.210938 6.695312 17.550781 6.195312 19.164062 C 5.132812 22.585938 5.476562 24 5.742188 24.03125 C 6.304688 24.101562 7.929688 21.457031 7.929688 21.457031 C 7.929688 22.988281 8.71875 24.984375 10.425781 26.425781 C 9.601562 26.679688 7.746094 27.359375 8.1875 28.105469 C 8.542969 28.710938 14.320312 28.492188 15.984375 28.304688 C 17.648438 28.492188 23.425781 28.710938 23.78125 28.105469 C 24.222656 27.363281 22.367188 26.679688 21.542969 26.425781 C 23.25 24.980469 24.039062 22.984375 24.039062 21.457031 C 24.039062 21.457031 25.664062 24.101562 26.226562 24.03125 C 26.492188 23.996094 26.835938 22.582031 25.773438 19.164062 Z M 25.773438 19.164062 "/>
</g>
</svg>
