<?xml version="1.0" standalone="no"?><!DOCTYPE svg PUBLIC "-//W3C//DTD SVG 1.1//EN" "http://www.w3.org/Graphics/SVG/1.1/DTD/svg11.dtd"><svg t="1714104271780" class="icon" viewBox="0 0 1024 1024" version="1.1" xmlns="http://www.w3.org/2000/svg" p-id="3152" width="48" height="48" xmlns:xlink="http://www.w3.org/1999/xlink"><path d="M739.83 262.85c4.55-0.84 9.27-0.69 13.87-0.3 7.85 2.53 13.99 8.96 16.92 16.58 1.58 6-0.09 12.21-0.37 18.27-1.99 6.03-2.62 12.36-2.87 18.67-1.03 5.26-1.22 10.61-0.92 15.95-1.09-1.2-1.27-2.85-1.42-4.38 0.77 10.31-7.61 19.81-17.76 20.91-7.27 2.18-14.78 3.45-22.34 4.1-10.33 1.72-20.51 4.57-31.02 5.02-7.01 0.58-13.55 3.58-20.61 3.74-7.01 0.38-13.66 2.62-20.45 4.11 0.62 3.8 0.46 7.65 0.42 11.49 0.02 56.66 0 113.33 0.01 169.99 0.09 21.35-0.21 42.71 0.19 64.06 2.15 15.14 8.78 29.12 15.94 42.49 3.41 6.8 6.97 13.53 10.77 20.14 5.21 11.72 11.81 22.76 17.46 34.27 4.14 7.44 7.53 15.27 11.71 22.69 4.07 9.12 9.62 17.52 13.21 26.86 2.33 5.82-0.06 12.17-3.09 17.25-3.66 4.61-9.42 7.77-15.39 7.67-16.72-0.01-33.43-0.02-50.15 0.02-4.57 0.03-9.44-1.27-12.61-4.74-4.93-4.49-7.29-10.84-10.69-16.41-8.1-14.73-15.38-29.88-23.7-44.48-7.28-13.72-14.44-27.51-22.03-41.05-5.16-10.5-11.86-20.41-14.58-31.95-2.23-7.07-3.06-14.42-3.7-21.77-0.1-80.43 0.08-160.87-0.09-241.29-3.17-1.26-6.68 0.23-9.94 0.52-9.47 0.64-18.6 3.66-28.07 4.33-5.56 0.86-11.22 1.33-16.59 3.1-7.5 2.33-15.56 1.1-23.04 3.47-7.38 2.48-15.26 2.39-22.84 3.9-10.46 2.35-21.1 3.71-31.64 5.58-0.01 109.46 0.02 218.93-0.02 328.39 0.08 10.81-8.01 19.24-16.34 25-9.93 6.45-19.94 12.78-29.65 19.57-3.3 2.01-6.59 4.09-10.15 5.64-9.47 2.33-20.03-1.82-25.48-9.89-1.76-3.96-3.93-7.97-4.33-12.35-0.06-114.02 0.07-228.05-0.06-342.08-5.13 0.15-9.87 2.36-14.96 2.78-5.35 1.06-10.9 0.76-16.15 2.38-5.01 1.55-10.3 1.73-15.46 2.48-6.11 0.16-11.69 3.14-17.81 3.16-7.02 1.56-14.24 1.74-21.23 3.46-6.47 0.63-12.97 4-19.47 1.64-6.79-2.14-13.19-6.77-15.64-13.69-3.24-6.02-2.6-13.26-0.69-19.6 1.71-6.06 1-12.43 2.14-18.57 0.58-3.91 0.13-7.94 1.27-11.78 1.34-4.45 1.59-9.44 4.64-13.17 2.86-3.53 6.12-7.14 10.7-8.31 5.38-2.61 11.43-2.59 17.23-3.46 15.2-2.45 30.38-5.08 45.58-7.56 9.07-2.49 18.64-2.28 27.71-4.79 8.44-2.22 17.24-2.25 25.69-4.34 6.31-0.64 12.35-2.79 18.71-3.06 5.57-0.75 11.17-1.52 16.62-2.97 8.08-1.37 16.4-1.63 24.29-4.05 7.05-1.78 14.42-1.72 21.52-3.24 4.15-1.21 8.48-1.4 12.73-2.03 6.64-1.62 13.4-2.72 20.2-3.39 4.46-0.27 8.5-2.45 12.94-2.92 5.84-0.71 11.93-0.45 17.46-2.8 8.66-1.97 17.82-1.23 26.32-4.1 10.59-2.38 21.55-2.73 32.11-5.31 8.03-2.68 16.7-1.66 24.78-4.14 8.95-2.64 18.46-2.29 27.45-4.79 5.98-1.03 11.93-2.26 18-2.55 13.01-2.77 26.18-4.75 39.35-6.69 6.37-1.88 12.95-2.96 19.59-3.34 5.53-0.36 10.76-2.33 16.25-3.05 9.77-2.24 20.02-2.04 29.57-5.29z" fill="#FEFEFE" p-id="3153"></path></svg>