<svg width="36" height="36" viewBox="0 0 36 36" fill="none" xmlns="http://www.w3.org/2000/svg">
<path d="M18 36C27.9411 36 36 27.9411 36 18C36 8.05887 27.9411 0 18 0C8.05887 0 0 8.05887 0 18C0 27.9411 8.05887 36 18 36Z" fill="black"/>
<path d="M26.1476 9.21857L8.77925 12.1302C8.60746 12.1583 8.4494 12.2414 8.32884 12.3669C8.20828 12.4925 8.13171 12.6538 8.11065 12.8266L7.93194 14.2747C7.91654 14.3985 7.93012 14.5241 7.97162 14.6417C8.01311 14.7593 8.08138 14.8656 8.17104 14.9522C8.26069 15.0389 8.36927 15.1035 8.4882 15.141C8.60712 15.1785 8.73314 15.1878 8.85628 15.1682L12.2455 14.6013V26.6178C12.2457 26.7637 12.2853 26.9069 12.3604 27.0321C12.4354 27.1573 12.543 27.2598 12.6716 27.3287C12.8003 27.3976 12.9452 27.4303 13.091 27.4234C13.2368 27.4165 13.378 27.3702 13.4996 27.2894L14.7906 26.4545C14.9431 26.353 15.0684 26.2157 15.1554 26.0545C15.2424 25.8934 15.2885 25.7133 15.2897 25.5301V14.0929L19.9299 13.3165V21.765C19.9295 22.2818 20.0565 22.7909 20.2996 23.247L22.3609 27.1138C22.4192 27.2261 22.5079 27.3197 22.6169 27.384C22.7258 27.4483 22.8507 27.4807 22.9771 27.4774H24.7365C24.8543 27.478 24.9702 27.4483 25.0733 27.3912C25.1763 27.3341 25.2629 27.2515 25.3248 27.1512C25.3867 27.051 25.4217 26.9365 25.4266 26.8188C25.4315 26.7011 25.406 26.5841 25.3527 26.4791L23.2822 22.5075C23.0537 22.0601 22.9344 21.5649 22.934 21.0625V12.8112L26.237 12.2566C26.4082 12.2279 26.5656 12.1446 26.6855 12.0191C26.8055 11.8936 26.8816 11.7326 26.9025 11.5602L27.0812 10.1121C27.097 9.98746 27.0833 9.86086 27.0413 9.74245C26.9993 9.62404 26.9302 9.51711 26.8394 9.43024C26.7487 9.34337 26.6388 9.27898 26.5187 9.24222C26.3985 9.20546 26.2715 9.19736 26.1476 9.21857V9.21857Z" fill="white"/>
</svg>
