<?xml version="1.0" encoding="UTF-8"?>
<svg xmlns="http://www.w3.org/2000/svg" xmlns:xlink="http://www.w3.org/1999/xlink" width="32px" height="32px" viewBox="0 0 32 21" version="1.1">
<g id="surface1">
<path style=" stroke:none;fill-rule:nonzero;fill:rgb(100%,100%,100%);fill-opacity:1;" d="M 28.703125 0 L 28.703125 17.117188 C 28.394531 17.128906 28.085938 17.144531 27.773438 17.160156 C 27.253906 17.183594 26.726562 17.214844 26.199219 17.242188 C 25.71875 17.269531 25.238281 17.300781 24.753906 17.324219 L 22.316406 17.453125 L 20.828125 17.535156 L 18.523438 17.660156 L 16.992188 17.746094 L 14.726562 17.871094 L 13.242188 17.953125 L 10.847656 18.078125 L 9.359375 18.160156 L 6.964844 18.289062 L 5.476562 18.371094 L 3.082031 18.496094 L 1.59375 18.578125 L 0 18.671875 L 0 1.476562 C 0.179688 1.460938 0.359375 1.445312 0.535156 1.433594 L 3.085938 1.308594 L 4.679688 1.226562 L 7.140625 1.101562 L 8.828125 1.015625 L 11.289062 0.890625 L 12.839844 0.808594 L 14.546875 0.722656 L 16.25 0.640625 L 18.6875 0.511719 L 20.308594 0.429688 L 21.992188 0.34375 L 23.71875 0.25 L 25.402344 0.167969 L 27.023438 0.0820312 Z M 22.136719 7.230469 C 22.398438 7.113281 22.609375 7.011719 22.828125 6.910156 C 23.609375 6.539062 24.402344 6.15625 25.195312 5.800781 C 25.421875 5.734375 25.566406 5.515625 25.527344 5.289062 C 25.496094 4.949219 25.519531 4.601562 25.519531 4.257812 L 25.519531 3.3125 C 25.335938 3.332031 25.183594 3.359375 25.027344 3.367188 C 24.222656 3.410156 23.417969 3.449219 22.613281 3.492188 C 22.136719 3.515625 21.664062 3.550781 21.191406 3.574219 C 20.5 3.605469 19.804688 3.632812 19.113281 3.660156 C 19.042969 3.660156 18.96875 3.675781 18.898438 3.671875 C 18.78125 3.679688 18.664062 3.671875 18.550781 3.640625 C 18.03125 3.417969 17.519531 3.179688 16.984375 2.933594 C 16.953125 2.972656 16.921875 3.007812 16.894531 3.046875 C 16.242188 4.054688 15.589844 5.058594 14.929688 6.066406 C 14.839844 6.203125 14.902344 6.234375 15.007812 6.269531 C 15.46875 6.429688 15.9375 6.570312 16.386719 6.753906 C 16.625 6.851562 16.703125 6.761719 16.8125 6.585938 C 17.097656 6.121094 17.402344 5.667969 17.707031 5.210938 C 17.742188 5.15625 17.796875 5.117188 17.863281 5.101562 C 18.097656 5.074219 18.335938 5.066406 18.574219 5.054688 C 19.0625 5.027344 19.550781 4.992188 20.039062 4.972656 C 20.714844 4.941406 21.394531 4.914062 22.070312 4.882812 C 22.148438 4.882812 22.230469 4.863281 22.308594 4.859375 L 23.363281 4.804688 C 23.449219 5.023438 23.335938 5.105469 23.167969 5.179688 C 22.238281 5.613281 21.3125 6.0625 20.382812 6.492188 C 20.296875 6.53125 20.199219 6.539062 20.109375 6.515625 C 19.5 6.304688 18.898438 6.074219 18.296875 5.855469 C 17.820312 5.683594 17.820312 5.683594 17.535156 6.085938 C 17.5 6.136719 17.460938 6.1875 17.425781 6.238281 L 16.949219 6.949219 L 18.367188 7.449219 C 17.574219 7.828125 16.800781 8.207031 16.035156 8.566406 C 15.933594 8.605469 15.828125 8.621094 15.71875 8.621094 C 15.472656 8.636719 15.226562 8.644531 14.976562 8.65625 L 14.976562 9.957031 L 16.257812 9.957031 C 16.355469 9.953125 16.453125 9.925781 16.542969 9.882812 C 17.585938 9.386719 18.640625 8.894531 19.683594 8.386719 C 20.023438 8.183594 20.445312 8.15625 20.8125 8.316406 C 21.609375 8.652344 22.441406 8.921875 23.265625 9.195312 C 23.65625 9.394531 24.089844 9.503906 24.535156 9.511719 C 24.710938 9.492188 24.894531 9.484375 25.070312 9.46875 L 25.636719 9.417969 L 25.636719 8.058594 C 25.453125 8.078125 25.289062 8.109375 25.125 8.113281 C 24.933594 8.128906 24.738281 8.117188 24.550781 8.078125 C 24.210938 7.988281 23.878906 7.855469 23.546875 7.738281 C 23.089844 7.574219 22.632812 7.40625 22.140625 7.234375 Z M 9.066406 4.21875 L 9.066406 9.984375 C 8.507812 10.023438 7.976562 10.0625 7.445312 10.09375 C 6.640625 10.140625 5.835938 10.183594 5.027344 10.21875 C 4.617188 10.242188 4.207031 10.246094 3.792969 10.265625 C 3.53125 10.277344 3.28125 10.304688 3.023438 10.328125 L 3.023438 11.679688 L 7.183594 11.453125 C 6.660156 12.117188 6.152344 12.757812 5.65625 13.414062 C 5.496094 13.6875 5.179688 13.84375 4.859375 13.804688 C 4.511719 13.789062 4.160156 13.800781 3.816406 13.839844 C 3.566406 13.851562 3.316406 13.878906 3.046875 13.902344 C 3.046875 14.3125 3.046875 14.722656 3.054688 15.136719 C 3.074219 15.199219 3.128906 15.246094 3.195312 15.261719 C 4.019531 15.214844 4.847656 15.152344 5.675781 15.105469 C 6.058594 15.082031 6.441406 15.078125 6.824219 15.058594 C 6.882812 15.050781 6.9375 15.019531 6.972656 14.976562 C 7.222656 14.664062 7.464844 14.347656 7.710938 14.039062 C 8.316406 13.273438 8.917969 12.503906 9.53125 11.742188 C 9.691406 11.539062 9.8125 11.289062 10.152344 11.273438 C 10.957031 11.242188 11.761719 11.191406 12.570312 11.148438 C 12.90625 11.128906 13.246094 11.125 13.585938 11.101562 C 13.636719 11.101562 13.730469 11.019531 13.730469 10.976562 C 13.742188 10.597656 13.738281 10.21875 13.730469 9.84375 C 13.714844 9.792969 13.671875 9.753906 13.617188 9.738281 C 13.164062 9.757812 12.710938 9.78125 12.261719 9.808594 C 11.902344 9.828125 11.546875 9.855469 11.160156 9.882812 L 11.160156 4.109375 L 9.0625 4.21875 Z M 14.96875 11.695312 L 15.152344 11.695312 C 15.582031 11.667969 16.011719 11.636719 16.445312 11.613281 C 16.875 11.59375 17.308594 11.585938 17.75 11.570312 C 17.828125 11.570312 17.90625 11.550781 17.984375 11.546875 L 19.25 11.480469 L 19.25 14.363281 L 21.382812 14.25 L 21.382812 11.378906 C 21.578125 11.355469 21.75 11.328125 21.917969 11.316406 C 22.414062 11.285156 22.910156 11.253906 23.40625 11.234375 C 24.097656 11.203125 24.792969 11.175781 25.484375 11.148438 C 25.539062 11.148438 25.59375 11.136719 25.644531 11.132812 L 25.644531 9.75 C 25.253906 9.777344 24.882812 9.816406 24.503906 9.835938 C 23.820312 9.871094 23.136719 9.894531 22.449219 9.921875 C 22.378906 9.921875 22.308594 9.945312 22.238281 9.949219 L 21.375 9.996094 L 21.375 9.332031 L 19.238281 9.457031 L 19.238281 10.105469 C 18.675781 10.144531 18.140625 10.1875 17.601562 10.214844 C 16.910156 10.25 16.214844 10.269531 15.523438 10.304688 C 15.34375 10.3125 15.160156 10.34375 14.972656 10.363281 L 14.972656 11.695312 Z M 10.046875 11.570312 L 10.023438 11.648438 L 11.675781 14.773438 L 13.992188 14.648438 C 13.992188 14.621094 13.988281 14.59375 13.984375 14.566406 C 13.5 13.648438 13.011719 12.734375 12.535156 11.8125 C 12.464844 11.601562 12.238281 11.476562 12.011719 11.519531 C 11.75 11.550781 11.484375 11.566406 11.21875 11.570312 C 10.828125 11.574219 10.4375 11.570312 10.054688 11.570312 Z M 14.941406 14.597656 L 15.21875 14.597656 C 15.765625 14.570312 16.308594 14.535156 16.855469 14.515625 C 16.984375 14.527344 17.105469 14.453125 17.148438 14.335938 C 17.472656 13.707031 17.816406 13.089844 18.152344 12.46875 C 18.253906 12.277344 18.355469 12.082031 18.472656 11.851562 C 18.25 11.875 18.074219 11.898438 17.894531 11.90625 C 17.476562 11.925781 17.058594 11.933594 16.640625 11.949219 C 16.445312 11.933594 16.265625 12.046875 16.203125 12.222656 C 16.105469 12.445312 15.992188 12.65625 15.863281 12.863281 Z M 26.03125 13.984375 C 26.03125 13.953125 26.023438 13.917969 26.011719 13.886719 C 25.550781 13.148438 25.089844 12.40625 24.625 11.667969 C 24.578125 11.566406 24.46875 11.507812 24.351562 11.523438 C 23.832031 11.5625 23.316406 11.582031 22.800781 11.613281 C 22.679688 11.621094 22.558594 11.640625 22.410156 11.652344 C 22.902344 12.4375 23.371094 13.195312 23.84375 13.953125 C 23.886719 14.019531 23.953125 14.066406 24.03125 14.085938 C 24.488281 14.085938 24.945312 14.066406 25.398438 14.046875 C 25.605469 14.035156 25.808594 14.007812 26.023438 13.984375 Z M 7.890625 9.363281 C 7.890625 9.332031 7.890625 9.316406 7.878906 9.308594 C 7.4375 8.769531 6.984375 8.234375 6.554688 7.683594 C 6.394531 7.417969 6.082031 7.269531 5.765625 7.316406 C 5.316406 7.367188 4.859375 7.375 4.410156 7.40625 C 4.25 7.414062 4.089844 7.4375 3.929688 7.449219 C 3.9375 7.492188 3.929688 7.511719 3.941406 7.519531 C 4.394531 8.070312 4.855469 8.617188 5.300781 9.175781 C 5.445312 9.414062 5.726562 9.546875 6.015625 9.515625 C 6.566406 9.457031 7.125 9.453125 7.675781 9.421875 C 7.75 9.410156 7.820312 9.390625 7.890625 9.363281 Z M 7.914062 6.847656 C 7.84375 6.75 7.796875 6.675781 7.738281 6.605469 C 7.367188 6.152344 6.988281 5.707031 6.628906 5.246094 C 6.398438 4.949219 6.183594 4.703125 5.726562 4.792969 C 5.367188 4.835938 5.007812 4.851562 4.648438 4.847656 C 4.410156 4.859375 4.171875 4.886719 3.902344 4.910156 C 4.460938 5.597656 4.996094 6.265625 5.542969 6.925781 C 5.597656 6.96875 5.664062 6.992188 5.734375 6.988281 C 6.195312 6.964844 6.648438 6.933594 7.109375 6.90625 C 7.363281 6.882812 7.621094 6.863281 7.914062 6.839844 Z M 7.914062 6.847656 "/>
</g>
</svg>
