<?xml version="1.0" standalone="no"?><!DOCTYPE svg PUBLIC "-//W3C//DTD SVG 1.1//EN" "http://www.w3.org/Graphics/SVG/1.1/DTD/svg11.dtd"><svg t="1616224932323" class="icon" viewBox="0 0 1517 1024" version="1.1" xmlns="http://www.w3.org/2000/svg" p-id="6221" width="47.40625" height="32" xmlns:xlink="http://www.w3.org/1999/xlink"><defs><style type="text/css"></style></defs><path d="M1349.082207 0v834.652633c-14.533295 0.674541-29.127911 1.28776-43.661206 2.023623q-36.793151 1.962301-74.015555 4.108569c-22.627788 1.28776-45.255576 2.820808-67.883364 4.047246l-114.610666 6.132192-69.906987 4.047247-108.478474 6.132192-71.93061 4.108568-106.393529 6.132192-69.906987 4.047247-112.52572 6.132192-69.906988 4.047246-112.52572 6.132192-69.906987 4.047247-112.525721 6.132191-69.906987 4.047247L0 910.507846V71.991932c8.401103-0.674541 16.802206-1.533048 25.203309-2.023623l119.761706-6.132192L220.023044 59.788871l115.653138-6.132192L414.842779 49.54811l115.653138-6.132192 72.973083-4.047246 80.147748-4.108569 80.147747-4.108568 114.610666-6.132192 76.100501-4.108569L1033.642258 16.802206 1114.832479 12.264384l79.166596-4.108569 76.100501-4.108568L1349.082207 0z m-308.694537 352.53971c12.264384-5.702938 22.259856-10.54737 32.500616-15.514446 36.793151-18.089966 73.954234-36.793151 111.23796-54.208576a22.259856 22.259856 0 0 0 15.63709-24.958021c-1.533048-16.61824-0.367932-33.420446-0.367932-50.161329v-46.236727c-8.523747 1.042473-15.759733 2.268911-23.057041 2.698165-37.835624 2.207589-75.732569 4.108569-113.568193 6.132192-22.259856 1.226438-44.519713 2.943452-66.840891 3.985924-32.500617 1.59437-65.062556 2.820808-97.563173 4.169891-3.372706 0-6.745411 0.797185-10.118116 0.613219a46.175405 46.175405 0 0 1-16.311631-1.59437c-24.528767-10.85398-48.505638-22.505144-73.586302-34.340274a61.68985 61.68985 0 0 0-4.292534 5.457651c-30.660959 49.057535-61.321919 98.11507-92.289488 147.172604-4.292534 6.684089-1.28776 8.155815 3.617994 9.934151 21.646637 7.849206 43.661206 14.71726 64.817268 23.67026 11.099267 4.660466 14.839904 0.429253 19.929623-8.155815 13.4295-22.750432 27.840151-44.887644 42.128158-67.086179a12.264384 12.264384 0 0 1 7.297308-5.396329c11.099267-1.226438 22.259856-1.59437 33.420446-2.26891 22.934398-1.349082 45.930117-2.943452 68.864514-4.047247 31.826076-1.533048 63.713473-2.759486 95.539549-4.231212 3.679315 0 7.35863-0.981151 11.037946-1.226439l49.609432-2.698164c4.047247 10.792658-1.28776 14.655939-9.198288 18.396575-43.722528 21.156062-87.199768 42.925343-130.922296 64.020083a18.396576 18.396576 0 0 1-12.816281 1.042473c-28.514692-10.363404-56.784097-21.462671-85.176145-32.194007-22.3825-8.462425-22.443822-8.401103-35.689356 11.283233-1.717014 2.514199-3.556671 4.905753-5.151041 7.419952l-22.382501 34.585562 66.595604 24.528767c-37.345048 18.396576-73.586302 36.793151-109.704912 54.453864a40.533788 40.533788 0 0 1-14.717261 2.57552c-11.651165 0.797185-23.302329 1.165116-34.892171 1.717014v63.406864h60.156802a32.991192 32.991192 0 0 0 13.368178-3.556671c49.057535-24.160836 98.605645-48.26035 147.66318-72.911762a56.600131 56.600131 0 0 1 52.982137-3.556671c37.467692 16.434274 76.529754 29.495843 115.285207 42.925343a132.3327 132.3327 0 0 0 59.727549 15.453124c8.339781-1.042473 16.802206-1.349082 25.203308-2.146268l26.552391-2.514198v-66.227672c-8.585069 0.981151-16.250308 2.514199-23.97687 2.636842a95.478227 95.478227 0 0 1-27.104288-1.655691c-16.005021-4.4765-31.519466-10.915301-47.156556-16.679562-21.523993-7.971849-42.925343-16.066343-66.105028-24.528768zM426.06469 205.796359v281.038352c-26.123137 1.839658-51.081158 3.863281-76.100501 5.396329q-56.784097 3.372706-113.629515 6.132192c-19.316404 0.981151-38.694131 1.226438-58.010535 2.207589-12.264384 0.613219-24.099514 1.962301-36.241254 3.004774v65.85974l195.494276-10.915301c-24.528767 32.316651-48.505638 63.652151-71.807966 95.600871a37.896946 37.896946 0 0 1-37.40637 19.071116 316.237134 316.237134 0 0 0-49.057535 1.655692c-11.712486 0.674541-23.424973 1.962301-36.11861 3.066096 0 19.990945 0 40.043213 0.306609 60.09548a9.198288 9.198288 0 0 0 6.745411 6.132192c38.755453-2.268911 77.510905-5.212363 116.511646-7.603918 17.967322-1.103795 35.934644-1.28776 53.901966-2.268911a11.099267 11.099267 0 0 0 7.113342-4.047246c11.712486-15.085192 23.118363-30.660959 34.646884-45.68483 28.45337-37.345048 56.722775-74.812741 85.482755-111.912501 7.66524-9.872829 13.368178-22.198535 29.189233-22.873076 37.896946-1.533048 75.732569-3.985925 113.629515-6.132191 15.943699-0.858507 31.887398-1.103795 47.769775-2.330233 2.514199 0 6.806733-3.924603 6.868054-6.132192 0.551897-18.396576 0.429253-36.793151 0-55.189727a7.419952 7.419952 0 0 0-5.273685-5.028397 2471.273316 2471.273316 0 0 0-63.836117 3.311383c-16.802206 1.042473-33.604411 2.330233-51.755699 3.617994V200.461352l-98.605645 5.335007z m277.420359 364.497483h8.707713c20.236233-1.28776 40.411144-2.943452 60.647377-3.985925s40.717754-1.410404 61.321919-2.207589c3.679315 0 7.35863-0.919829 11.037945-1.103794l59.543583-3.18874v140.488515l100.322658-5.45765V554.779397c9.136966-1.103795 17.108815-2.391555 25.141987-2.943452 23.302329-1.533048 46.604658-3.004774 69.906987-4.108569 32.500617-1.533048 65.062556-2.759486 97.563172-4.16989 2.575521 0 5.151041-0.490575 7.66524-0.735863v-67.454111c-18.396576 1.471726-35.934644 3.311384-53.656678 4.231213-32.132685 1.717014-64.326693 2.820808-96.5207 4.231212-3.311384 0-6.622767 1.103795-9.934151 1.28776l-40.533788 2.268911v-32.377973l-100.445303 6.132192v31.703432c-26.429747 1.839658-51.694377 3.924603-77.020329 5.273685-32.500617 1.717014-65.062556 2.698164-97.563173 4.292534-8.585069 0.429253-17.170137 1.900979-25.877849 2.882131v65.001233z m-231.306276-6.132192l-1.103795 3.924603 77.633549 152.262324 108.907727-6.132192a18.028644 18.028644 0 0 0-0.367931-3.863281c-22.750432-44.765001-45.684829-89.407357-68.128652-134.356323a21.40135 21.40135 0 0 0-24.528767-14.349329 306.609593 306.609593 0 0 1-37.222405 2.514198c-18.396576 0.30661-36.793151 0-54.883117 0z m230.079838 147.601858h13.000247c25.693884-1.28776 51.326446-3.066096 77.020329-3.863281a13.368178 13.368178 0 0 0 13.613466-8.891678c15.391802-30.660959 31.458144-60.647377 47.217877-90.940405 4.905753-9.382254 9.504897-18.948473 15.085192-30.109062-10.424726 1.042473-18.703185 2.207589-27.104288 2.575521-19.684336 0.919829-39.368672 1.28776-58.991685 2.207589a19.561692 19.561692 0 0 0-20.481521 13.306856 282.080825 282.080825 0 0 1-16.066343 31.212856l-43.354596 84.562926z m521.236307-29.802452a14.410651 14.410651 0 0 0-0.858507-4.78311q-32.500617-54.147254-65.185199-108.171864a12.264384 12.264384 0 0 0-12.877603-7.052021c-24.528767 1.778336-48.628281 2.820808-72.911761 4.292535-5.76426 0.367932-11.467199 1.28776-18.396576 2.023623 23.057041 38.264877 45.194254 75.241994 67.454111 112.035145a13.490822 13.490822 0 0 0 8.830356 6.500123c21.40135 0 42.925343-0.919829 64.142727-1.900979 9.688863-0.429253 19.316404-1.900979 29.434521-2.943452zM370.874963 456.480361c0-1.349082 0-2.146267-0.490575-2.57552-20.78813-26.368425-42.128158-52.368918-62.241747-79.227919a36.793151 36.793151 0 0 0-37.222405-17.967322c-21.09474 2.575521-42.49609 2.943452-63.713473 4.415178-7.481274 0.490575-14.901226 1.471726-22.505144 2.207589 0.367932 2.084945 0 2.943452 0.613219 3.372706 21.278706 26.859 42.925343 53.411391 63.774795 80.638323a34.278952 34.278952 0 0 0 33.665733 16.618239c25.87785-2.759486 52.062309-3.004774 78.062803-4.599143a46.66598 46.66598 0 0 0 10.056794-2.882131z m1.165117-122.643837c-3.311384-4.660466-5.641617-8.278459-8.339781-11.651164-17.415425-22.137213-35.198781-43.967816-52.184953-66.411638-10.85398-14.349329-20.910774-26.368425-42.434768-22.075891a368.299443 368.299443 0 0 1-50.651904 2.636843c-11.221911 0.674541-22.3825 2.023623-35.076138 3.18874 26.245781 33.481768 51.510412 65.921062 77.204296 98.115069a12.264384 12.264384 0 0 0 8.953 3.066096c21.585315-1.042473 42.925343-2.514199 64.633302-3.924603 12.019096-1.165116 24.099514-2.146267 37.896946-3.188739z" p-id="6222" fill="#ffffff"></path></svg>