<?xml version="1.0" standalone="no"?><!DOCTYPE svg PUBLIC "-//W3C//DTD SVG 1.1//EN" "http://www.w3.org/Graphics/SVG/1.1/DTD/svg11.dtd"><svg t="1700324507680" class="icon" viewBox="0 0 1024 1024" version="1.1" xmlns="http://www.w3.org/2000/svg" p-id="12908" width="32" height="32" xmlns:xlink="http://www.w3.org/1999/xlink"><path d="M849.362007 828.770319l0 173.945582-171.913507-105.848506c-23.812903 3.88352-48.303165 6.171486-73.425627 6.171486-118.08611 0-223.874407-45.20237-296.878566-116.535713 12.026871 0.677358 23.97848 1.550398 36.18598 1.550398 17.159741 0 34.048538-0.857987 50.771759-2.197651 57.620603 39.678137 130.534449 63.521145 209.920828 63.521145 27.395376 0 53.84245-3.1309 79.371327-8.474504l59.72794 39.828661c-0.045157 0.045157-0.150524 0.105367-0.165576 0.105367l45.066898 29.86397 0-108.678358c92.256185-51.960899 153.338841-141.74849 153.338841-244.014523 0-64.650076-24.655838-124.182334-65.914478-172.545708 2.709433-18.84561 4.575931-37.932058 4.575931-57.455027 0-8.941128-0.963354-17.626365-1.550398-26.416969 76.390951 63.55125 124.227491 153.08295 124.227491 252.594394C1002.746005 665.812992 942.581546 764.91802 849.362007 828.770319L849.362007 828.770319 849.362007 828.770319zM420.022285 719.02324c-25.122462 0-49.597672-2.272913-73.410575-6.171486L174.68315 818.70026 174.68315 644.769731C81.478664 580.887327 21.344309 481.812404 21.344309 370.183775c0-192.65572 178.491408-348.839466 398.677976-348.839466 220.186567 0 398.677976 156.183745 398.677976 348.839466C818.70026 562.839495 640.208852 719.02324 420.022285 719.02324L420.022285 719.02324 420.022285 719.02324zM420.022285 82.667803c-186.303606 0-337.354481 130.459187-337.354481 291.339282 0 102.220876 61.097708 192.008467 153.338841 243.999471l0 108.678358 45.127108-29.86397c-0.075262 0-0.150524-0.045157-0.210734-0.090314l59.742992-39.843714c25.498773 5.343603 51.991004 8.459451 79.356275 8.459451 186.288553 0 337.339429-130.414029 337.339429-291.339282C757.361713 213.142042 606.310838 82.667803 420.022285 82.667803L420.022285 82.667803 420.022285 82.667803zM619.361272 420.022285c-25.348249 0-46.000147-20.576636-46.000147-46.000147 0-25.393406 20.636846-46.000147 46.000147-46.000147 25.423511 0 46.000147 20.606741 46.000147 46.000147C665.346367 399.430596 644.784783 420.022285 619.361272 420.022285L619.361272 420.022285 619.361272 420.022285zM435.360684 420.022285c-25.408458 0-46.000147-20.576636-46.000147-46.000147 0-25.393406 20.591689-46.000147 46.000147-46.000147 25.423511 0 46.000147 20.606741 46.000147 46.000147C481.360831 399.430596 460.784195 420.022285 435.360684 420.022285L435.360684 420.022285 435.360684 420.022285zM251.360096 420.022285c-25.408458 0-46.000147-20.576636-46.000147-46.000147 0-25.393406 20.591689-46.000147 46.000147-46.000147 25.408458 0 46.000147 20.606741 46.000147 46.000147C297.360243 399.430596 276.753502 420.022285 251.360096 420.022285L251.360096 420.022285 251.360096 420.022285zM251.360096 420.022285" fill="#ffffff" p-id="12909"></path></svg>