<?xml version="1.0" encoding="UTF-8"?>
<svg xmlns="http://www.w3.org/2000/svg" xmlns:xlink="http://www.w3.org/1999/xlink" width="32px" height="32px" viewBox="0 0 32 32" version="1.1">
<g id="surface1">
<path style=" stroke:none;fill-rule:nonzero;fill:rgb(100%,100%,100%);fill-opacity:1;" d="M 21.566406 11.792969 C 21.75 11.792969 21.933594 11.800781 22.117188 11.808594 C 21.351562 7.789062 17.167969 4.710938 12.117188 4.710938 C 6.53125 4.710938 2 8.480469 2 13.132812 C 2 15.664062 3.363281 17.949219 5.496094 19.492188 C 5.667969 19.617188 5.78125 19.816406 5.78125 20.042969 C 5.78125 20.117188 5.765625 20.1875 5.746094 20.257812 C 5.574219 20.894531 5.304688 21.910156 5.289062 21.957031 C 5.269531 22.039062 5.238281 22.117188 5.238281 22.203125 C 5.238281 22.386719 5.386719 22.539062 5.574219 22.539062 C 5.648438 22.539062 5.707031 22.511719 5.769531 22.476562 L 7.984375 21.199219 C 8.148438 21.101562 8.328125 21.042969 8.523438 21.042969 C 8.621094 21.042969 8.722656 21.058594 8.820312 21.085938 C 9.851562 21.382812 10.96875 21.550781 12.121094 21.550781 C 12.308594 21.550781 12.492188 21.546875 12.679688 21.539062 C 12.457031 20.882812 12.335938 20.191406 12.335938 19.476562 C 12.335938 15.230469 16.46875 11.792969 21.566406 11.792969 Z M 15.492188 9.089844 C 16.238281 9.089844 16.84375 9.695312 16.84375 10.4375 C 16.84375 11.179688 16.242188 11.785156 15.492188 11.785156 C 14.75 11.785156 14.144531 11.179688 14.144531 10.4375 C 14.144531 9.695312 14.75 9.089844 15.492188 9.089844 Z M 8.746094 11.785156 C 8.003906 11.785156 7.398438 11.179688 7.398438 10.4375 C 7.398438 9.695312 8 9.089844 8.746094 9.089844 C 9.492188 9.089844 10.097656 9.695312 10.097656 10.4375 C 10.097656 11.179688 9.492188 11.785156 8.746094 11.785156 Z M 8.746094 11.785156 "/>
<path style=" stroke:none;fill-rule:nonzero;fill:rgb(100%,100%,100%);fill-opacity:1;" d="M 27.085938 24.773438 C 28.863281 23.484375 29.996094 21.585938 29.996094 19.46875 C 29.996094 15.59375 26.222656 12.453125 21.5625 12.453125 C 16.90625 12.453125 13.128906 15.59375 13.128906 19.46875 C 13.128906 23.34375 16.902344 26.484375 21.5625 26.484375 C 22.523438 26.484375 23.457031 26.347656 24.316406 26.101562 C 24.398438 26.074219 24.476562 26.0625 24.5625 26.0625 C 24.726562 26.0625 24.871094 26.113281 25.007812 26.191406 L 26.855469 27.253906 C 26.910156 27.285156 26.960938 27.304688 27.019531 27.304688 C 27.09375 27.304688 27.164062 27.277344 27.21875 27.226562 C 27.273438 27.171875 27.300781 27.101562 27.300781 27.023438 C 27.300781 26.957031 27.273438 26.886719 27.257812 26.820312 C 27.246094 26.78125 27.019531 25.933594 26.875 25.402344 C 26.859375 25.34375 26.847656 25.285156 26.847656 25.226562 C 26.851562 25.039062 26.945312 24.875 27.085938 24.773438 Z M 18.757812 18.351562 C 18.132812 18.351562 17.632812 17.847656 17.632812 17.226562 C 17.632812 16.609375 18.132812 16.105469 18.757812 16.105469 C 19.378906 16.105469 19.882812 16.609375 19.882812 17.226562 C 19.882812 17.847656 19.375 18.351562 18.757812 18.351562 Z M 24.378906 18.351562 C 23.757812 18.351562 23.253906 17.847656 23.253906 17.226562 C 23.253906 16.609375 23.757812 16.105469 24.378906 16.105469 C 25 16.105469 25.503906 16.609375 25.503906 17.226562 C 25.5 17.847656 24.996094 18.351562 24.378906 18.351562 Z M 24.378906 18.351562 "/>
</g>
</svg>
