<?xml version="1.0" encoding="UTF-8"?>
<svg xmlns="http://www.w3.org/2000/svg" xmlns:xlink="http://www.w3.org/1999/xlink" width="32px" height="32px" viewBox="0 0 32 32" version="1.1">
<g id="surface1">
<path style=" stroke:none;fill-rule:nonzero;fill:rgb(100%,100%,100%);fill-opacity:1;" d="M 14.289062 16.96875 C 12.164062 16.414062 9.757812 17.476562 8.835938 19.351562 C 7.894531 21.261719 8.804688 23.382812 10.953125 24.078125 C 13.179688 24.796875 15.804688 23.695312 16.714844 21.632812 C 17.613281 19.613281 16.492188 17.539062 14.289062 16.96875 Z M 12.664062 21.851562 C 12.234375 22.539062 11.304688 22.839844 10.609375 22.523438 C 9.921875 22.210938 9.71875 21.410156 10.152344 20.738281 C 10.582031 20.070312 11.476562 19.769531 12.164062 20.058594 C 12.867188 20.355469 13.089844 21.152344 12.664062 21.851562 Z M 14.085938 20.023438 C 13.929688 20.289062 13.585938 20.417969 13.316406 20.304688 C 13.050781 20.195312 12.964844 19.898438 13.117188 19.632812 C 13.273438 19.371094 13.601562 19.246094 13.867188 19.351562 C 14.140625 19.449219 14.238281 19.753906 14.085938 20.023438 Z M 24.539062 13.859375 C 25.007812 14.007812 25.507812 13.753906 25.664062 13.289062 C 26.03125 12.144531 25.800781 10.835938 24.9375 9.882812 C 24.074219 8.925781 22.800781 8.558594 21.625 8.808594 C 21.144531 8.914062 20.835938 9.382812 20.941406 9.867188 C 21.042969 10.34375 21.515625 10.652344 21.996094 10.546875 C 22.570312 10.425781 23.195312 10.601562 23.617188 11.070312 C 24.039062 11.539062 24.15625 12.175781 23.972656 12.734375 C 23.820312 13.207031 24.070312 13.707031 24.539062 13.859375 Z M 24.539062 13.859375 "/>
<path style=" stroke:none;fill-rule:nonzero;fill:rgb(100%,100%,100%);fill-opacity:1;" d="M 27.660156 7.421875 C 25.886719 5.457031 23.273438 4.707031 20.855469 5.21875 C 20.296875 5.335938 19.941406 5.886719 20.0625 6.445312 C 20.179688 7.007812 20.730469 7.363281 21.289062 7.242188 C 23.007812 6.878906 24.867188 7.414062 26.128906 8.808594 C 27.386719 10.207031 27.726562 12.113281 27.191406 13.78125 C 27.015625 14.324219 27.3125 14.90625 27.855469 15.085938 C 28.398438 15.257812 28.980469 14.960938 29.15625 14.421875 L 29.15625 14.417969 C 29.910156 12.0625 29.433594 9.382812 27.660156 7.421875 Z M 22.78125 15.59375 C 22.398438 15.480469 22.140625 15.402344 22.339844 14.902344 C 22.773438 13.820312 22.816406 12.882812 22.351562 12.214844 C 21.476562 10.960938 19.074219 11.03125 16.324219 12.179688 C 16.324219 12.179688 15.460938 12.558594 15.679688 11.875 C 16.101562 10.515625 16.039062 9.378906 15.382812 8.71875 C 13.890625 7.226562 9.925781 8.773438 6.523438 12.175781 C 3.976562 14.722656 2.5 17.421875 2.5 19.757812 C 2.5 24.222656 8.226562 26.9375 13.828125 26.9375 C 21.171875 26.9375 26.054688 22.671875 26.054688 19.28125 C 26.054688 17.234375 24.332031 16.074219 22.78125 15.59375 Z M 13.84375 25.335938 C 9.375 25.777344 5.515625 23.757812 5.226562 20.820312 C 4.933594 17.886719 8.324219 15.148438 12.792969 14.710938 C 17.261719 14.265625 21.121094 16.289062 21.414062 19.222656 C 21.699219 22.15625 18.3125 24.894531 13.84375 25.335938 Z M 13.84375 25.335938 "/>
</g>
</svg>
