<?xml version="1.0" encoding="UTF-8"?>
<svg xmlns="http://www.w3.org/2000/svg" xmlns:xlink="http://www.w3.org/1999/xlink" width="32px" height="32px" viewBox="0 0 32 32" version="1.1">
<g id="surface1">
<path style=" stroke:none;fill-rule:nonzero;fill:rgb(100%,100%,100%);fill-opacity:1;" d="M 17.648438 7.191406 L 17.648438 25.09375 L 19.523438 25.09375 L 20.308594 27.324219 L 23.632812 25.09375 L 27.742188 25.09375 L 27.742188 7.191406 Z M 25.386719 22.722656 L 23.515625 22.722656 L 21.167969 24.296875 L 20.613281 22.722656 L 20.050781 22.722656 L 20.050781 9.632812 L 25.382812 9.632812 L 25.382812 22.722656 Z M 16.441406 15.214844 L 12.289062 15.214844 C 12.355469 13.8125 12.425781 11.957031 12.496094 9.8125 L 16.585938 9.8125 L 16.585938 9.558594 C 16.585938 9.539062 16.578125 9.101562 16.511719 8.648438 C 16.445312 8.179688 16.304688 7.558594 15.855469 7.558594 L 8.992188 7.558594 C 9.132812 6.914062 9.484375 5.382812 9.914062 4.628906 L 10.113281 4.277344 L 9.710938 4.257812 C 9.683594 4.257812 9.097656 4.226562 8.414062 4.585938 C 7.300781 5.179688 6.800781 6.351562 6.582031 7.226562 C 6.007812 9.507812 5.1875 11.097656 4.839844 11.773438 C 4.738281 11.976562 4.675781 12.09375 4.648438 12.175781 C 4.589844 12.328125 4.621094 12.480469 4.734375 12.582031 C 5.0625 12.878906 5.929688 12.492188 5.9375 12.488281 C 5.957031 12.476562 5.976562 12.46875 6.007812 12.457031 C 6.441406 12.257812 7.726562 11.675781 8.1875 9.816406 L 9.960938 9.816406 C 9.980469 10.820312 10.054688 14.140625 10.050781 15.21875 L 5.644531 15.21875 L 5.578125 15.265625 C 4.855469 15.792969 4.625 17.242188 4.617188 17.304688 L 4.570312 17.589844 L 9.789062 17.589844 C 9.40625 20.039062 8.960938 21.132812 8.726562 21.570312 C 8.613281 21.789062 8.5 22.007812 8.394531 22.222656 C 7.726562 23.539062 7.039062 24.902344 4.445312 27.023438 C 4.335938 27.109375 4.226562 27.273438 4.296875 27.449219 C 4.371094 27.648438 4.585938 27.734375 5.066406 27.734375 C 5.234375 27.734375 5.433594 27.726562 5.671875 27.703125 C 7.230469 27.566406 8.820312 27.140625 9.894531 24.964844 C 10.425781 23.867188 10.882812 22.726562 11.265625 21.5625 L 15.53125 26.5625 L 15.6875 26.1875 C 15.710938 26.128906 16.28125 24.742188 15.847656 23.191406 L 15.832031 23.132812 L 12.453125 19.289062 L 11.765625 19.808594 C 11.964844 18.992188 12.097656 18.25 12.15625 17.585938 L 17.117188 17.585938 L 17.117188 17.335938 C 17.117188 16.085938 16.539062 15.339844 16.515625 15.308594 Z M 16.441406 15.214844 "/>
</g>
</svg>
